<svg id="Layer_1" data-name="Layer 1" xmlns="http://www.w3.org/2000/svg" viewBox="0 0 213.52 213.48"><title>xyz-01</title><path d="M201.22,24.89l-10.93-8.76,12.09-6.82,10.92,8.76Z"/><path d="M201.23,24.74l11.85-6.69L202.36,9.46l-11.85,6.69,10.72,8.59m0,.3-11.14-8.93,12.32-6.95,11.13,8.93Z" style="fill:#e81b1b"/><path d="M186.2,34.76l-10.49-9.34,12.39-6.15,10.49,9.34Z"/><path d="M186.22,34.61l12.15-6-10.29-9.16-12.15,6,10.29,9.16m0,.3-10.7-9.52,12.64-6.27,10.69,9.52Z" style="fill:#e81b1b"/><path d="M171.23,44.63l-10.09-9.84,12.64-5.55,10.09,9.83Z"/><path d="M171.25,44.48,183.65,39l-9.9-9.65-12.39,5.45,9.89,9.65m-.05.29-10.28-10,12.88-5.66,10.29,10Z" style="fill:#e81b1b"/><path d="M68.35,54.47,58.71,44.13l12.88-4.9,9.63,10.33Z"/><path d="M68.38,54.32,81,49.51,71.56,39.37,58.93,44.18l9.45,10.14m-.06.3L58.5,44.08l13.12-5,9.82,10.54Z" style="fill:#e81b1b"/><path d="M170.74,64.35,161.3,53.81l13-4.63,9.43,10.54Z"/><path d="M170.77,64.2l12.72-4.53-9.26-10.34-12.71,4.53,9.25,10.34m-.07.3-9.62-10.75L174.3,49l9.62,10.75Z" style="fill:#e81b1b"/><path d="M112.11,64.34l-9.38-10.59,13-4.56,9.39,10.6Z"/><path d="M112.15,64.19l12.73-4.46-9.2-10.39L102.94,53.8l9.21,10.39m-.08.3-9.56-10.8L115.75,49l9.57,10.8Z" style="fill:#e81b1b"/><path d="M82.8,64.34,73.44,53.71l13-4.51L95.8,59.82Z"/><path d="M82.83,64.19l12.75-4.43L86.4,49.34,73.65,53.77l9.18,10.42m-.07.29L73.22,53.66l13.26-4.61L96,59.87Z" style="fill:#e81b1b"/><path d="M53.48,64.33,44.15,53.68l13-4.48,9.33,10.65Z"/><path d="M53.52,64.18l12.76-4.39L57.12,49.35,44.37,53.74l9.15,10.44m-.08.3L43.93,53.63,57.2,49.06,66.71,59.9Z" style="fill:#e81b1b"/><path d="M155.9,74.21l-9.17-10.8,13.08-4.26L169,70Z"/><path d="M155.94,74.07l12.82-4.18-9-10.59L147,63.47l9,10.6m-.08.29-9.35-11L159.85,59l9.34,11Z" style="fill:#e81b1b"/><path d="M126.59,74.21l-9.15-10.83,13.09-4.23L139.68,70Z"/><path d="M126.63,74.07l12.83-4.15-9-10.62-12.83,4.15,9,10.62m-.08.28-9.32-11L130.57,59l9.32,11Z" style="fill:#e81b1b"/><path d="M38.66,74.2,29.58,63.31l13.11-4.14,9.08,10.88Z"/><path d="M38.71,74.05,51.56,70,42.64,59.31,29.79,63.38l8.92,10.67m-.09.29L29.36,63.25,42.73,59,52,70.12Z" style="fill:#e81b1b"/><path d="M23.89,84.07,15,73l13.18-3.9,8.9,11.06Z"/><path d="M23.93,83.93l12.92-3.81L28.12,69.27,15.2,73.08l8.73,10.85m-.09.29L14.77,73l13.44-4,9.07,11.27Z" style="fill:#e81b1b"/><path d="M155.66,94l-8.82-11.12L160,79.06l8.83,11.13Z"/><path d="M155.71,93.83l12.94-3.71L160,79.2l-12.94,3.72,8.65,10.91m-.09.29-9-11.34,13.46-3.87,9,11.35Z" style="fill:#e81b1b"/><path d="M126.36,94l-8.81-11.14,13.21-3.77,8.81,11.14Z"/><path d="M126.41,93.83l12.94-3.7L130.71,79.2l-13,3.7,8.65,10.93m-.09.29-9-11.35,13.46-3.85,9,11.35Z" style="fill:#e81b1b"/><path d="M141,103.87l-8.74-11.21L145.46,89l8.73,11.2Z"/><path d="M141,103.73l13-3.6-8.57-11-13,3.6,8.56,11m-.09.28L132,92.59l13.49-3.74,8.9,11.42Z" style="fill:#e81b1b"/><path d="M155.59,113.78l-8.71-11.23,13.24-3.63,8.71,11.23Z"/><path d="M155.64,113.64l13-3.56-8.55-11-13,3.56,8.55,11m-.1.28-8.87-11.44,13.5-3.7L169,110.22Z" style="fill:#e81b1b"/><path d="M9.12,113.79.4,102.56l13.24-3.64,8.72,11.22Z"/><path d="M9.17,113.64l13-3.57-8.55-11-13,3.57,8.56,11m-.1.29L.19,102.49l13.5-3.72,8.88,11.44Z" style="fill:#e81b1b"/><path d="M141,123.71l-8.74-11.2,13.23-3.68L154.19,120Z"/><path d="M141,123.56,154,120l-8.58-11-13,3.61,8.58,11m-.09.29L132,112.44l13.49-3.76,8.91,11.41Z" style="fill:#e81b1b"/><path d="M155.67,133.64l-8.83-11.11,13.2-3.81,8.83,11.12Z"/><path d="M155.72,133.5l12.94-3.73L160,118.87l-12.94,3.72,8.67,10.91m-.1.29-9-11.33,13.46-3.88,9,11.33Z" style="fill:#e81b1b"/><path d="M9.24,133.66.34,122.6l13.18-3.89,8.9,11.06Z"/><path d="M9.28,133.51,22.2,129.7l-8.73-10.85L.56,122.67l8.72,10.84m-.09.29L.13,122.53l13.43-4,9.07,11.27Z" style="fill:#e81b1b"/><path d="M170.41,143.59l-9-11,13.15-4,9,11Z"/><path d="M170.46,143.45l12.89-3.92-8.8-10.78-12.9,3.92,8.81,10.78m-.09.29-9.15-11.2,13.41-4.07,9.15,11.19Z" style="fill:#e81b1b"/><path d="M141.13,143.6l-9-11,13.14-4,9,11Z"/><path d="M141.17,143.45l12.89-3.94-8.82-10.76-12.89,3.94,8.82,10.76m-.08.29-9.17-11.18,13.41-4.1,9.16,11.18Z" style="fill:#e81b1b"/><path d="M185.19,153.55,176,142.74l13.07-4.25,9.17,10.8Z"/><path d="M185.23,153.4l12.83-4.17-9-10.6-12.82,4.17,9,10.6m-.08.29-9.34-11,13.33-4.34,9.35,11Z" style="fill:#e81b1b"/><path d="M9.52,153.58.22,142.9l13-4.44,9.3,10.67Z"/><path d="M9.56,153.43l12.77-4.36L13.2,138.6.43,143l9.13,10.47m-.08.29L0,142.85l13.28-4.54,9.48,10.88Z" style="fill:#e81b1b"/><path d="M200,163.51l-9.41-10.57,13-4.58L213,158.93Z"/><path d="M200.05,163.37l12.72-4.5-9.23-10.37L190.82,153l9.23,10.37m-.08.29-9.58-10.77,13.23-4.68L213.21,159Z" style="fill:#e81b1b"/><path d="M141.46,163.52,132,153,145,148.35l9.46,10.51Z"/><path d="M141.5,163.38l12.7-4.57-9.28-10.32-12.7,4.57,9.28,10.32m-.08.29L131.78,153,145,148.2l9.64,10.72Z" style="fill:#e81b1b"/><path d="M127.05,173.5l-9.78-10.18,12.8-5.12,9.78,10.18Z"/><path d="M127.08,173.35l12.55-5-9.59-10-12.56,5,9.6,10m-.06.3-10-10.37,13-5.22,10,10.37Z" style="fill:#e81b1b"/><path d="M24.89,183.49l-10.26-9.63,12.53-5.81,10.27,9.62Z"/><path d="M24.91,183.34l12.3-5.7L27.14,168.2l-12.29,5.7,10.06,9.44m0,.3-10.46-9.81,12.78-5.93,10.46,9.81Z" style="fill:#e81b1b"/><path d="M127.64,193.44l-10.53-9.3,12.37-6.21,10.53,9.3Z"/><path d="M127.66,193.29l12.13-6.09-10.33-9.12-12.13,6.09,10.33,9.12m0,.3-10.73-9.48,12.61-6.33,10.73,9.48Z" style="fill:#e81b1b"/><path d="M39.85,193.45,29.21,184.3l12.29-6.38,10.64,9.15Z"/><path d="M39.87,193.3,51.92,187l-10.44-9-12,6.26,10.44,9m0,.3L29,184.28l12.53-6.51,10.84,9.32Z" style="fill:#e81b1b"/><path d="M113.37,203.39l-11-8.7,12.06-6.88,11,8.71Z"/><path d="M113.38,203.24l11.82-6.74L114.45,188l-11.82,6.74,10.75,8.54m0,.31-11.17-8.88,12.29-7,11.17,8.88Z" style="fill:#e81b1b"/><path d="M84.11,203.4l-11-8.65,12-6.94,11,8.65Z"/><path d="M84.12,203.25l11.79-6.81L85.12,188l-11.79,6.8,10.79,8.49m0,.3-11.22-8.82,12.26-7.07,11.21,8.81Z" style="fill:#e81b1b"/><path d="M54.85,203.4,43.8,194.81l12-7,11.05,8.59Z"/><path d="M54.86,203.25l11.76-6.87L55.78,188,44,194.82l10.83,8.43m0,.3-11.26-8.76,12.22-7.14,11.26,8.76Z" style="fill:#e81b1b"/><path d="M69.89,213.33l-11.46-8,11.62-7.67,11.46,7.95Z"/><path d="M69.89,213.18l11.4-7.52-11.24-7.8-11.4,7.52,11.24,7.8m0,.3-11.67-8.1,11.84-7.83,11.68,8.11Z" style="fill:#e81b1b"/><path d="M200.57,44.48l-9.92-9.6L203,29.39,212.94,39Z"/><path d="M200.6,44.33l12.12-5.39L203,29.53l-12.12,5.39,9.73,9.41m0,.3-10.12-9.79,12.62-5.6L213.16,39Z" style="fill:#e81b1b"/><path d="M185.65,54.34l-9.56-10,12.56-5,9.56,10Z"/><path d="M185.68,54.19,198,49.31l-9.37-9.8-12.31,4.87,9.37,9.81m-.06.3-9.75-10.2,12.81-5.08,9.75,10.2Z" style="fill:#e81b1b"/><path d="M97.7,54.32l-9.47-10.1,12.6-4.85,9.47,10.1Z"/><path d="M97.73,54.18l12.35-4.76-9.28-9.9L88.44,44.27l9.29,9.91m-.07.29L88,44.17l12.85-4.94,9.66,10.29Z" style="fill:#e81b1b"/><path d="M97.32,74.06,88.38,63.43l12.83-4.12,8.94,10.63Z"/><path d="M97.36,73.91l12.58-4-8.77-10.43-12.58,4,8.77,10.42m-.08.29L88.16,63.36l13.09-4.19L110.37,70Z" style="fill:#e81b1b"/><path d="M68,74.05,59.09,63.4l12.84-4.09L80.85,70Z"/><path d="M68.05,73.91l12.59-4L71.88,59.46l-12.58,4,8.75,10.44M68,74.2l-9.1-10.86L72,59.17,81.07,70Z" style="fill:#e81b1b"/><path d="M141.15,83.94l-8.78-10.79,12.89-3.89L154,80Z"/><path d="M141.19,83.79,153.83,80,145.22,69.4l-12.64,3.82,8.61,10.57m-.08.29-9-11,13.15-4,8.95,11Z" style="fill:#e81b1b"/><path d="M111.85,83.94l-8.77-10.8L116,69.26l8.76,10.8Z"/><path d="M111.89,83.79,124.53,80l-8.6-10.59L103.29,73.2l8.6,10.59m-.09.29-8.94-11L116,69.12l8.94,11Z" style="fill:#e81b1b"/><path d="M9.2,93.81.6,82.87l13-3.65,8.6,11Z"/><path d="M9.25,93.67,21.94,90.1,13.51,79.36.82,82.94,9.25,93.67m-.1.29L.39,82.8,13.6,79.07l8.77,11.17Z" style="fill:#e81b1b"/><path d="M23.81,103.72l-8.54-11,13-3.57,8.55,11Z"/><path d="M23.86,103.58l12.71-3.51L28.2,89.29l-12.72,3.5,8.38,10.79m-.1.28-8.7-11.21L28.29,89,37,100.22Z" style="fill:#e81b1b"/><path d="M170.3,123.56l-8.56-11,13-3.6,8.57,11Z"/><path d="M170.35,123.41l12.7-3.52-8.39-10.77L162,112.65l8.4,10.76m-.1.29-8.73-11.19,13.23-3.68,8.73,11.2Z" style="fill:#e81b1b"/><path d="M24.4,163.39,15,153.2l12.65-4.72L37,158.67Z"/><path d="M24.43,163.25l12.39-4.63-9.19-10-12.4,4.63,9.2,10m-.07.29L14.8,153.15l12.9-4.82,9.56,10.39Z" style="fill:#e81b1b"/><path d="M185.62,173.34l-9.52-10,12.57-4.93,9.53,10Z"/><path d="M185.66,173.19,198,168.36l-9.34-9.85-12.33,4.84,9.35,9.84m-.07.29-9.71-10.23,12.83-5,9.71,10.23Z" style="fill:#e81b1b"/><path d="M10,173.37.28,163.54l12.48-5.2,9.72,9.83Z"/><path d="M10,173.22l12.23-5.1-9.53-9.64L.5,163.58,10,173.22m-.06.29-9.91-10,12.73-5.3,9.91,10Z" style="fill:#e81b1b"/><path d="M142,183.31l-9.92-9.6,12.37-5.49,9.92,9.6Z"/><path d="M142,183.17l12.12-5.39-9.72-9.41-12.13,5.38,9.73,9.42m-.06.29-10.11-9.78,12.62-5.6,10.11,9.78Z" style="fill:#e81b1b"/><path d="M112.71,183.32l-9.95-9.56,12.35-5.54,10,9.56Z"/><path d="M112.74,183.17l12.1-5.43-9.76-9.37L103,173.8l9.76,9.37m0,.3-10.15-9.75,12.6-5.65,10.14,9.75Z" style="fill:#e81b1b"/><path d="M98.39,193.29,88,184.22l12.1-6.14,10.35,9.07Z"/><path d="M98.41,193.14l11.86-6-10.15-8.89-11.86,6,10.15,8.89m0,.3L87.82,184.2l12.34-6.27,10.55,9.24Z" style="fill:#e81b1b"/><path d="M69.13,193.29l-10.39-9,12.07-6.2,10.39,9Z"/><path d="M69.15,193.14,81,187.07l-10.19-8.84L59,184.3l10.19,8.84m0,.3-10.59-9.19,12.31-6.32,10.59,9.19Z" style="fill:#e81b1b"/><path d="M99.14,213.18,88,205.32l11.44-7.46,11.18,7.86Z"/><path d="M99.15,213l11.2-7.31-11-7.71-11.2,7.31,11,7.71m0,.3-11.41-8,11.66-7.6,11.41,8Z" style="fill:#e81b1b"/><path d="M156.36,54.18,147,44.35l12.31-4.83,9.34,9.83Z"/><path d="M156.4,54l12.06-4.73-9.15-9.64L147.24,44.4,156.4,54m-.07.3-9.52-10,12.57-4.93,9.52,10Z" style="fill:#e81b1b"/><path d="M170.5,83.79l-8.62-10.55,12.62-3.83L183.12,80Z"/><path d="M170.54,83.65l12.37-3.76-8.45-10.34L162.1,73.31l8.44,10.34m-.08.29-8.79-10.76,12.88-3.92L183.34,80Z" style="fill:#e81b1b"/><path d="M38.55,93.67,30.11,83,42.8,79.37l8.43,10.71Z"/><path d="M38.59,93.52,51,90l-8.26-10.5L30.33,83l8.26,10.5m-.09.29L29.9,82.88l13-3.66,8.6,10.93Z" style="fill:#e81b1b"/><path d="M170.35,103.57,162,92.82l12.7-3.53,8.39,10.76Z"/><path d="M170.39,103.43,182.83,100l-8.22-10.55-12.44,3.46,8.22,10.54m-.09.29-8.56-11,13-3.6,8.56,11Z" style="fill:#e81b1b"/><path d="M23.89,123.42l-8.42-10.73,12.69-3.57,8.42,10.72Z"/><path d="M23.94,123.27l12.43-3.5-8.26-10.51-12.43,3.5,8.26,10.51m-.09.29-8.59-10.94,13-3.65,8.59,10.94Z" style="fill:#e81b1b"/><path d="M24.08,143.31l-8.7-10.47,12.59-4,8.7,10.47Z"/><path d="M24.13,143.17l12.33-3.87L27.93,129,15.6,132.91l8.53,10.26m-.09.29-8.87-10.68,12.84-4,8.88,10.67Z" style="fill:#e81b1b"/><path d="M156,153.25l-8.82-10.35,12.55-4.12,8.82,10.36Z"/><path d="M156,153.11l12.29-4-8.64-10.15-12.29,4L156,153.11m-.08.29-9-10.56,12.81-4.2,9,10.56Z" style="fill:#e81b1b"/><path d="M170.81,163.22l-9.06-10.13,12.45-4.44,9.05,10.13Z"/><path d="M170.84,163.07l12.2-4.35-8.88-9.92L162,153.15l8.87,9.92m-.07.29L161.53,153l12.7-4.53,9.24,10.32Z" style="fill:#e81b1b"/><path d="M39.3,173.21l-9.49-9.67,12.24-5,9.49,9.66Z"/><path d="M39.33,173.06l12-4.94L42,158.64l-12,5,9.3,9.47m-.06.3-9.68-9.86,12.49-5.15,9.68,9.86Z" style="fill:#e81b1b"/><path d="M200.54,183.15l-9.65-9.48,12.16-5.28,9.65,9.48Z"/><path d="M200.57,183l11.91-5.17L203,168.54l-11.91,5.17,9.46,9.29m0,.3-9.85-9.67,12.41-5.39,9.84,9.67Z" style="fill:#e81b1b"/><path d="M83.34,44.15,74,34.8l11.93-5.09,9.39,9.36Z"/><path d="M83.37,44l11.69-5-9.2-9.16-11.68,5L83.37,44m-.06.3-9.57-9.55,12.18-5.19,9.58,9.55Z" style="fill:#e81b1b"/><path d="M39.13,54l-9-9.75,12.12-4.57,9,9.75Z"/><path d="M39.17,53.86,51,49.38l-8.85-9.54L30.32,44.31l8.85,9.55m-.07.29-9.22-9.94,12.37-4.67,9.22,10Z" style="fill:#e81b1b"/><path d="M24.28,63.87l-8.75-10,12.24-4.18,8.75,10Z"/><path d="M24.32,63.73l12-4.1L27.73,49.8l-12,4.1,8.57,9.83m-.08.29L15.32,53.78l12.49-4.27,8.93,10.24Z" style="fill:#e81b1b"/><path d="M53.32,83.63,44.94,73.25l12.38-3.68L65.7,80Z"/><path d="M53.37,83.49l12.12-3.6L57.28,69.71l-12.12,3.6,8.21,10.18m-.09.28L44.73,73.18l12.64-3.75L65.92,80Z" style="fill:#e81b1b"/><path d="M126.43,113.34l-8.19-10.56,12.45-3.42,8.19,10.56Z"/><path d="M126.48,113.19l12.18-3.34-8-10.34-12.18,3.34,8,10.34m-.1.29L118,102.71l12.71-3.49L139.09,110Z" style="fill:#e81b1b"/><path d="M126.75,153.11,118.09,143l12.28-4.06L139,149.05Z"/><path d="M126.79,153l12-4-8.48-9.92-12,4,8.48,9.91m-.08.29-8.83-10.32,12.53-4.15,8.83,10.33Z" style="fill:#e81b1b"/><path d="M54.23,183l-9.62-9.09,11.81-5.41L66,177.61Z"/><path d="M54.25,182.87l11.56-5.3-9.42-8.9L44.83,174l9.42,8.9m0,.3-9.81-9.27,12-5.53,9.81,9.27Z" style="fill:#e81b1b"/><path d="M25.62,202.93l-10.42-8,11.24-6.65,10.42,8Z"/><path d="M25.63,202.78l11-6.51-10.2-7.85-11,6.51,10.21,7.85m0,.31L15,194.9l11.48-6.78,10.63,8.18Z" style="fill:#e81b1b"/><path d="M40.64,212.86l-10.81-7.41,10.88-7.28,10.81,7.41Z"/><path d="M40.64,212.71l10.66-7.13-10.59-7.26-10.66,7.13,10.59,7.26m0,.31-11-7.57L40.71,198l11,7.57Z" style="fill:#e81b1b"/><path d="M54.05,44,44.89,34.8l11.7-4.93,9.16,9.19Z"/><path d="M54.08,43.84,65.53,39l-9-9L45.11,34.84l9,9m-.06.3-9.35-9.38,11.95-5L66,39.1Z" style="fill:#e81b1b"/><path d="M9.52,73.59l-8.34-10,12.06-3.79,8.34,10Z"/><path d="M9.56,73.45l11.81-3.71L13.2,59.92,1.39,63.62l8.17,9.83m-.09.29L1,63.5l12.33-3.87L21.8,69.87Z" style="fill:#e81b1b"/><path d="M185.13,133.05,177,122.81l12.14-3.49,8.12,10.24Z"/><path d="M185.18,132.9l11.89-3.41-7.95-10-11.89,3.41,8,10m-.09.29-8.29-10.45,12.41-3.56,8.29,10.45Z" style="fill:#e81b1b"/><path d="M126.56,133.05l-8.14-10.22,12.14-3.51,8.14,10.22Z"/><path d="M126.6,132.91l11.88-3.44-8-10-11.89,3.44,8,10m-.09.28-8.3-10.43,12.4-3.58,8.3,10.43Z" style="fill:#e81b1b"/><path d="M156.44,172.88l-9-9.39,11.79-4.67,9,9.39Z"/><path d="M156.48,172.74,168,168.17l-8.79-9.2-11.54,4.57,8.79,9.2m-.07.29-9.16-9.59,12.05-4.77,9.16,9.59Z" style="fill:#e81b1b"/><path d="M10.65,192.83.82,184.47l11.29-5.93,9.83,8.37Z"/><path d="M10.67,192.68l11-5.8-9.62-8.19-11,5.8,9.62,8.19m0,.3-10-8.54,11.52-6.05,10,8.54Z" style="fill:#e81b1b"/><path d="M187,14.21l-10.2-7.33L187.33.15l10.2,7.33Z"/><path d="M187,14.06l10.34-6.58L187.32.3,177,6.89l10,7.17m0,.3L176.54,6.87,187.33,0l10.43,7.49Z" style="fill:#e81b1b"/><path d="M172,24.11l-9.8-7.94,10.9-6.08,9.8,7.93Z"/><path d="M172,24,182.63,18,173,10.24l-10.67,6L172,24m0,.3-10-8.11,11.14-6.21,10,8.1Z" style="fill:#e81b1b"/><path d="M127.14,53.72l-8.73-9.25L130,40l8.72,9.24Z"/><path d="M127.17,53.57l11.31-4.39-8.54-9-11.31,4.39,8.54,9m-.06.29-8.91-9.44L130,39.83l8.91,9.44Z" style="fill:#e81b1b"/><path d="M141.6,63.59l-8.47-9.52,11.68-4.13,8.47,9.52Z"/><path d="M141.64,63.44l11.42-4-8.29-9.31-11.42,4,8.29,9.31m-.08.29L132.92,54l11.93-4.22,8.65,9.71Z" style="fill:#e81b1b"/><path d="M82.71,83.33l-8-9.93,11.85-3.53,8,9.93Z"/><path d="M82.75,83.19l11.6-3.46L86.48,70,74.89,73.47l7.86,9.72m-.08.29L74.46,73.34l12.11-3.62,8.2,10.14Z" style="fill:#e81b1b"/><path d="M199.91,142.84l-8.07-9.9,11.84-3.58,8.07,9.91Z"/><path d="M200,142.7l11.58-3.5-7.89-9.69L192.06,133l7.89,9.7m-.09.28-8.23-10.11,12.1-3.65L212,139.33Z" style="fill:#e81b1b"/><path d="M128.41,212.55l-10.24-7.28,10.54-6.78,10.23,7.28Z"/><path d="M128.42,212.4l10.3-6.64-10-7.12-10.3,6.64,10,7.12m0,.3L118,205.27l10.76-6.93,10.46,7.43Z" style="fill:#e81b1b"/><path d="M157,33.83l-9.2-8.26,10.93-5.37,9.2,8.26Z"/><path d="M157,33.68l10.69-5.25-9-8.08L148,25.6l9,8.08m0,.3-9.4-8.44,11.17-5.49,9.4,8.44Z" style="fill:#e81b1b"/><path d="M112.74,43.69,103.92,35l11.16-4.8,8.82,8.72Z"/><path d="M112.77,43.55l10.91-4.7-8.63-8.53L104.14,35l8.63,8.54m-.06.29-9-8.91L115.11,30l9,8.91Z" style="fill:#e81b1b"/><path d="M185.44,73.32l-8.09-9.5,11.5-3.77,8.09,9.49Z"/><path d="M185.48,73.17l11.25-3.69-7.92-9.29-11.24,3.69,7.91,9.29m-.08.29-8.26-9.7L188.9,59.9l8.26,9.7Z" style="fill:#e81b1b"/><path d="M83.57,182.55l-9-8.54,11.07-5,9,8.55Z"/><path d="M83.59,182.41l10.83-4.92-8.78-8.36L74.82,174l8.77,8.37m0,.29L74.38,174l11.31-5.14,9.17,8.74Z" style="fill:#e81b1b"/><path d="M142.69,202.46l-9.61-7.72,10.64-6,9.61,7.71Z"/><path d="M142.71,202.31l10.4-5.87-9.4-7.54-10.41,5.86,9.41,7.55m0,.3-9.82-7.89,10.87-6.12,9.82,7.88Z" style="fill:#e81b1b"/><path d="M112,102.83l-7.5-9.64L115.85,90l7.51,9.64Z"/><path d="M112,102.69l11.12-3.08-7.34-9.43-11.12,3.08,7.34,9.43m-.09.28-7.68-9.85,11.65-3.23,7.67,9.86Z" style="fill:#e81b1b"/><path d="M112.43,162.47l-8.16-9,11.13-4,8.16,9Z"/><path d="M112.46,162.32l10.88-3.95-8-8.82-10.88,3.95,8,8.82m-.07.29-8.34-9.22,11.38-4.13,8.35,9.22Z" style="fill:#e81b1b"/><path d="M69.07,33.51l-8.69-8,10.49-5,8.69,8Z"/><path d="M69.09,33.36l10.25-4.87-8.49-7.82L60.6,25.54l8.49,7.82m0,.3-8.88-8.19,10.73-5.1,8.89,8.19Z" style="fill:#e81b1b"/><path d="M97.41,92.78,90,83.41l11.1-3.15,7.39,9.36Z"/><path d="M97.46,92.64l10.84-3.09-7.23-9.15L90.23,83.48l7.23,9.16m-.09.28L89.8,83.34l11.36-3.23,7.56,9.58Z" style="fill:#e81b1b"/><path d="M38.78,112.6l-7.33-9.43,11.12-3.06,7.33,9.43Z"/><path d="M38.82,112.45l10.86-3-7.15-9.21-10.86,3,7.15,9.21m-.09.29-7.49-9.65L42.62,100l7.49,9.65Z" style="fill:#e81b1b"/><path d="M39.1,152.37l-7.8-9,11-3.71,7.8,9Z"/><path d="M39.14,152.22l10.69-3.62-7.62-8.78-10.69,3.62,7.62,8.78m-.08.29-8-9.19,11.2-3.79,8,9.19Z" style="fill:#e81b1b"/><path d="M98,172.28l-8.25-8.52,10.74-4.34,8.25,8.52Z"/><path d="M98.05,172.13l10.49-4.23-8.06-8.33L90,163.81l8.06,8.32m-.06.3-8.44-8.71,11-4.44L109,168Z" style="fill:#e81b1b"/><path d="M98.41,33.36,89.9,25.58l10.22-4.91,8.51,7.78Z"/><path d="M98.43,33.21l10-4.79-8.31-7.6-10,4.79,8.31,7.6m0,.3-8.72-8,10.47-5,8.71,8Z" style="fill:#e81b1b"/><path d="M200.37,63l-7.77-8.62,10.63-3.83L211,59.16Z"/><path d="M200.4,62.84l10.37-3.73-7.58-8.42-10.37,3.73,7.58,8.42m-.07.3-7.94-8.83,10.87-3.92,8,8.83Z" style="fill:#e81b1b"/><path d="M185.29,112.45l-7.14-9.21,10.86-3,7.14,9.21Z"/><path d="M185.34,112.3l10.6-2.91-7-9-10.6,2.91,7,9m-.1.29-7.3-9.43,11.11-3,7.31,9.43Z" style="fill:#e81b1b"/><path d="M171.45,182.08,163.18,174l10.37-4.55,8.27,8.07Z"/><path d="M171.48,181.93l10.12-4.44-8.08-7.88-10.12,4.44,8.08,7.88m0,.3L163,174l10.62-4.66,8.46,8.26Z" style="fill:#e81b1b"/><path d="M157.07,192l-8.6-7.67,10.17-5,8.6,7.67Z"/><path d="M157.09,191.89,167,187l-8.4-7.49-9.93,4.92,8.4,7.49m0,.3-8.8-7.85,10.41-5.16,8.8,7.85Z" style="fill:#e81b1b"/><path d="M185.4,92.49l-7.07-8.9,10.56-3L196,89.44Z"/><path d="M185.45,92.34l10.3-3-6.9-8.68-10.3,3,6.9,8.68m-.09.29-7.24-9.11,10.82-3.12,7.24,9.11Z" style="fill:#e81b1b"/><path d="M186.36,191.88,178,184.36l9.94-4.87L196.3,187Z"/><path d="M186.38,191.73l9.7-4.75-8.16-7.34-9.7,4.75,8.16,7.34m0,.3-8.56-7.7,10.18-5,8.56,7.7Z" style="fill:#e81b1b"/><path d="M142.19,42.93l-7.84-7.7,9.87-4.3,7.85,7.71Z"/><path d="M142.22,42.78l9.63-4.19-7.66-7.51-9.62,4.19,7.65,7.51m-.06.3-8-7.89,10.12-4.41,8,7.9Z" style="fill:#e81b1b"/><path d="M68.25,92.33l-6.86-8.7,10.3-2.93,6.86,8.71Z"/><path d="M68.29,92.19l10-2.85-6.69-8.49L61.6,83.7l6.69,8.49m-.09.28-7-8.91,10.57-3,7,8.92Z" style="fill:#e81b1b"/><path d="M39,132l-6.93-8.64,10.28-3L49.28,129Z"/><path d="M39,131.87l10-2.94-6.76-8.43-10,2.94L39,131.87m-.09.29-7.1-8.85,10.55-3.1,7.1,8.85Z" style="fill:#e81b1b"/><path d="M68.83,171.83l-7.68-7.89,10-4.06,7.68,7.88Z"/><path d="M68.86,171.68l9.71-4L71.08,160l-9.71,4,7.49,7.69m-.06.29-7.87-8.07,10.21-4.17L79,167.81Z" style="fill:#e81b1b"/><path d="M25,42.76l-7.54-7.62,9.68-4,7.54,7.62Z"/><path d="M25,42.61l9.43-3.93-7.35-7.43-9.43,3.93L25,42.61m-.06.3L17.2,35.09,27.13,31l7.73,7.82Z" style="fill:#e81b1b"/><path d="M53.61,102.08,47,93.56,57,90.78l6.63,8.53Z"/><path d="M53.65,101.94l9.8-2.7L57,90.92l-9.8,2.71,6.46,8.31m-.09.29-6.8-8.74,10.33-2.85,6.79,8.74Z" style="fill:#e81b1b"/><path d="M54,161.72l-7.26-7.93,9.82-3.64,7.26,7.93Z"/><path d="M54.08,161.57,63.64,158l-7.07-7.73L47,153.84l7.08,7.73m-.07.29-7.44-8.13L56.64,150l7.44,8.13Z" style="fill:#e81b1b"/><path d="M84.08,22.85l-8-6.64,9-4.87,8,6.65Z"/><path d="M84.1,22.7,92.9,18l-7.77-6.48-8.79,4.74L84.1,22.7m0,.3-8.18-6.82,9.27-5L93.34,18Z" style="fill:#e81b1b"/><path d="M39.86,32.73l-7.63-7.09,9.26-4.34,7.63,7.09Z"/><path d="M39.88,32.58l9-4.23-7.43-6.9-9,4.23,7.43,6.9m-.05.3L32,25.61l9.5-4.46,7.83,7.27Z" style="fill:#e81b1b"/><path d="M10.15,52.48l-7.09-7.7,9.55-3.57,7.09,7.7Z"/><path d="M10.18,52.34l9.3-3.48-6.91-7.5L3.28,44.84l6.9,7.5m-.07.29-7.27-7.9,9.8-3.66L19.92,49Z" style="fill:#e81b1b"/><path d="M112.26,121.78l-6.48-8.29,9.79-2.73,6.48,8.28Z"/><path d="M112.3,121.63l9.53-2.66-6.31-8.07L106,113.56l6.31,8.07m-.09.29-6.64-8.5,10-2.8,6.65,8.49Z" style="fill:#e81b1b"/><path d="M112.39,141.65l-6.67-8.11,9.72-3,6.67,8.11Z"/><path d="M112.43,141.51l9.46-2.91-6.49-7.9-9.47,2.91,6.5,7.9m-.09.29-6.84-8.32,10-3.07,6.84,8.32Z" style="fill:#e81b1b"/><path d="M201.31,201.36l-8-6.57,9-4.95,8,6.57Z"/><path d="M201.33,201.21l8.75-4.82-7.82-6.4-8.75,4.82,7.82,6.4m0,.3-8.24-6.74,9.23-5.08,8.24,6.74Z" style="fill:#e81b1b"/><path d="M11.38,211.3l-8.54-5.78,8.54-5.78,8.54,5.78Z"/><path d="M11.38,211.15l8.32-5.63-8.32-5.63-8.32,5.63,8.32,5.63m0,.3-8.77-5.93,8.77-5.94,8.76,5.94Z" style="fill:#e81b1b"/><path d="M200.22,121.48l-6.11-7.85,9.26-2.57,6.12,7.85Z"/><path d="M200.27,121.33l9-2.49-6-7.64-9,2.5,6,7.63m-.1.29-6.28-8.06,9.53-2.64L209.7,119Z" style="fill:#e81b1b"/><path d="M157.69,12.49,150,6.91l8-5,7.68,5.58Z"/><path d="M157.7,12.34l7.78-4.89L158,2l-7.78,4.9,7.47,5.42m0,.3-7.9-5.74L158,1.72l7.9,5.74Z" style="fill:#e81b1b"/><path d="M54.82,22.23l-7.08-6L55.82,12l7.08,6Z"/><path d="M54.84,22.08l7.84-4.17L55.8,12.12,48,16.29l6.88,5.79m0,.3-7.29-6.14,8.31-4.42L63.12,18Z" style="fill:#e81b1b"/><path d="M127.89,32.12,121,25.89l8.22-4,6.88,6.23Z"/><path d="M127.91,32l8-3.87-6.68-6.05-8,3.87,6.68,6m0,.3-7.08-6.41,8.46-4.1,7.08,6.41Z" style="fill:#e81b1b"/><path d="M157.73,210.36l-7-5.05,7.28-4.64,7,5.06Z"/><path d="M157.73,210.21l7.06-4.48-6.81-4.9-7.06,4.48,6.81,4.9m0,.3-7.24-5.21,7.5-4.78,7.25,5.22Z" style="fill:#e81b1b"/><path d="M128.39,11.87l-6.75-5,7.09-4.41,6.75,5Z"/><path d="M128.4,11.72l6.86-4.27-6.54-4.81-6.86,4.27,6.54,4.81m0,.3-7-5.13,7.32-4.55,7,5.13Z" style="fill:#e81b1b"/><path d="M99.07,11.87l-6.73-5,7.11-4.37,6.74,5Z"/><path d="M99.08,11.72,106,7.49,99.45,2.65,92.57,6.87l6.51,4.85m0,.3L92.12,6.85l7.34-4.51,7,5.17Z" style="fill:#e81b1b"/><path d="M69.76,11.87l-6.71-5L70.18,2.5l6.71,5Z"/><path d="M69.76,11.71l6.91-4.18L70.18,2.65,63.27,6.83l6.49,4.88m0,.31L62.83,6.81l7.36-4.46,6.92,5.2Z" style="fill:#e81b1b"/><path d="M40.44,11.87,33.76,6.78,40.91,2.5l6.68,5.08Z"/><path d="M40.45,11.71l6.92-4.14L40.9,2.65,34,6.8l6.47,4.91m0,.31-6.9-5.25,7.39-4.42,6.89,5.24Z" style="fill:#e81b1b"/><path d="M11.12,11.86,4.46,6.75,11.64,2.5,18.3,7.62Z"/><path d="M11.13,11.71,18.07,7.6,11.63,2.65,4.69,6.76l6.44,5m0,.3L4.24,6.73l7.41-4.38,6.87,5.28Z" style="fill:#e81b1b"/><path d="M142.82,21.77l-6.51-5.33,7.29-4,6.51,5.32Z"/><path d="M142.83,21.62l7-3.89-6.3-5.15-7.05,3.88,6.3,5.16m0,.3-6.72-5.5,7.53-4.14,6.72,5.49Z" style="fill:#e81b1b"/><path d="M113.5,21.77,107,16.41l7.31-4,6.49,5.36Z"/><path d="M113.52,21.62l7.07-3.85-6.28-5.19-7.07,3.85,6.28,5.19m0,.3-6.7-5.53,7.55-4.11L121,17.81Z" style="fill:#e81b1b"/><path d="M25.55,21.76,19.14,16.3l7.36-3.87,6.41,5.46Z"/><path d="M25.57,21.61l7.12-3.74-6.21-5.29-7.12,3.75,6.21,5.28m0,.3-6.62-5.63,7.6-4,6.62,5.63Z" style="fill:#e81b1b"/><path d="M10.7,31.65,4.54,25.87l7.52-3.49,6.16,5.78Z"/><path d="M10.72,31.5,18,28.12l-6-5.59L4.76,25.91l6,5.59m0,.3-6.37-6,7.77-3.61,6.36,6Z" style="fill:#e81b1b"/><path d="M200.55,81.1l-5.4-6.59L203,72.1l5.4,6.59Z"/><path d="M200.6,81l7.62-2.33L203,72.24l-7.63,2.34L200.6,81m-.09.29-5.57-6.79L203.08,72l5.57,6.79Z" style="fill:#e81b1b"/><path d="M200.45,100.9l-5.25-6.72L203.14,92l5.25,6.72Z"/><path d="M200.5,100.76l7.68-2.14-5.09-6.51-7.67,2.14,5.08,6.51m-.09.28L195,94.11l8.2-2.29,5.41,6.94Z" style="fill:#e81b1b"/><path d="M83.27,100.9,78,94.16,86,92l5.24,6.73Z"/><path d="M83.31,100.75,91,98.63l-5.07-6.52-7.68,2.12,5.07,6.52m-.09.29-5.41-7L86,91.83l5.4,6.94Z" style="fill:#e81b1b"/><path d="M97.91,110.81l-5.23-6.74,7.94-2.18,5.23,6.74Z"/><path d="M98,110.67l7.69-2.11L100.57,102l-7.68,2.11L98,110.67m-.09.28-5.4-7,8.21-2.26,5.4,7Z" style="fill:#e81b1b"/><path d="M68.61,110.81l-5.23-6.74,7.95-2.18,5.23,6.74Z"/><path d="M68.66,110.67l7.68-2.11L71.28,102l-7.69,2.11,5.07,6.53m-.09.28-5.4-7,8.2-2.26,5.4,7Z" style="fill:#e81b1b"/><path d="M83.28,120.74,78,114,86,111.8l5.25,6.71Z"/><path d="M83.32,120.59,91,118.44l-5.09-6.5-7.68,2.15,5.09,6.5m-.09.29L77.81,114,86,111.66l5.43,6.92Z" style="fill:#e81b1b"/><path d="M54,120.74,48.72,114l7.94-2.22,5.26,6.71Z"/><path d="M54,120.59l7.68-2.15-5.1-6.5-7.67,2.15,5.09,6.5m-.09.29L48.51,114l8.19-2.29,5.43,6.92Z" style="fill:#e81b1b"/><path d="M98,130.67,92.65,124l7.91-2.3,5.32,6.66Z"/><path d="M98,130.52l7.66-2.22-5.15-6.45-7.66,2.22L98,130.52m-.09.29-5.49-6.87,8.18-2.38,5.49,6.87Z" style="fill:#e81b1b"/><path d="M68.68,130.67,63.35,124l7.91-2.31,5.33,6.66Z"/><path d="M68.72,130.52l7.66-2.23-5.16-6.45-7.66,2.24,5.16,6.44m-.09.29-5.49-6.87,8.17-2.38,5.49,6.86Z" style="fill:#e81b1b"/><path d="M83.39,140.61,78,134l7.88-2.44,5.42,6.57Z"/><path d="M83.43,140.46l7.62-2.36-5.25-6.36-7.62,2.36,5.25,6.36m-.09.29L77.75,134l8.14-2.52,5.59,6.78Z" style="fill:#e81b1b"/><path d="M54.1,140.61l-5.43-6.56,7.87-2.46L62,138.15Z"/><path d="M54.14,140.46l7.62-2.37-5.26-6.35-7.62,2.37,5.26,6.35m-.08.29L48.45,134l8.14-2.54,5.6,6.77Z" style="fill:#e81b1b"/><path d="M98.12,150.55l-5.54-6.45,7.83-2.61,5.54,6.45Z"/><path d="M98.16,150.4l7.58-2.52-5.37-6.25-7.58,2.53,5.37,6.24m-.08.29L92.36,144l8.09-2.7,5.72,6.66Z" style="fill:#e81b1b"/><path d="M68.83,150.55l-5.55-6.44,7.82-2.62,5.56,6.43Z"/><path d="M68.87,150.41l7.57-2.55-5.38-6.23-7.57,2.54,5.38,6.24m-.08.29-5.73-6.65,8.08-2.71L76.88,148Z" style="fill:#e81b1b"/><path d="M83.59,160.5l-5.71-6.28,7.76-2.85,5.71,6.28Z"/><path d="M83.63,160.35l7.51-2.75-5.54-6.08-7.5,2.75,5.53,6.08m-.07.29-5.9-6.48,8-2.93,5.89,6.48Z" style="fill:#e81b1b"/><path d="M172.13,200.28,165.6,195l7.27-4,6.53,5.29Z"/><path d="M172.14,200.13l7-3.92-6.32-5.13-7,3.92,6.32,5.13m0,.3L165.38,195l7.51-4.18,6.74,5.46Z" style="fill:#e81b1b"/><path d="M187,210.21l-6.78-4.94,7.07-4.44,6.78,4.93Z"/><path d="M187,210.06l6.84-4.3L187.29,201l-6.84,4.3,6.56,4.78m0,.3-7-5.09,7.3-4.59,7,5.09Z" style="fill:#e81b1b"/></svg>